<svg width="49" height="49" viewBox="0 0 49 49" fill="none" xmlns="http://www.w3.org/2000/svg">
<path d="M3.8784 48C2.7728 48 1.8504 47.6304 1.1112 46.8912C0.372 46.152 0.0016 45.2296 0 44.124V39.0456C0 38.7064 0.1152 38.4216 0.3456 38.1912C0.576 37.9608 0.8616 37.8456 1.2024 37.8456C1.5432 37.8456 1.828 37.9608 2.0568 38.1912C2.2856 38.4216 2.4 38.7064 2.4 39.0456V44.124C2.4 44.5544 2.5384 44.908 2.8152 45.1848C3.092 45.4616 3.4464 45.6 3.8784 45.6H8.952C9.2912 45.6 9.576 45.7152 9.8064 45.9456C10.0368 46.176 10.152 46.4616 10.152 46.8024C10.152 47.1432 10.0368 47.428 9.8064 47.6568C9.576 47.8856 9.2912 48 8.952 48H3.8784ZM44.124 48H39.0456C38.7064 48 38.4216 47.8848 38.1912 47.6544C37.9608 47.424 37.8456 47.1384 37.8456 46.7976C37.8456 46.4568 37.9608 46.172 38.1912 45.9432C38.4216 45.7144 38.7064 45.6 39.0456 45.6H44.124C44.5544 45.6 44.908 45.4616 45.1848 45.1848C45.4616 44.908 45.6 44.5544 45.6 44.124V39.0456C45.6 38.7064 45.7152 38.4216 45.9456 38.1912C46.176 37.9608 46.4616 37.8456 46.8024 37.8456C47.1432 37.8456 47.428 37.9608 47.6568 38.1912C47.8856 38.4216 48 38.7064 48 39.0456V44.124C48 45.228 47.6304 46.1504 46.8912 46.8912C46.152 47.632 45.2296 48.0016 44.124 48ZM24 37.752C20.128 37.752 16.616 36.7712 13.464 34.8096C10.3088 32.8464 7.7888 30.0784 5.904 26.5056C5.7088 26.1184 5.5632 25.7224 5.4672 25.3176C5.3712 24.9144 5.3232 24.5032 5.3232 24.084C5.3232 23.6312 5.3672 23.1832 5.4552 22.74C5.5432 22.2968 5.6928 21.8808 5.904 21.492C7.7888 17.9208 10.3088 15.1536 13.464 13.1904C16.616 11.2288 20.128 10.248 24 10.248C27.872 10.248 31.384 11.2296 34.536 13.1928C37.688 15.156 40.208 17.924 42.096 21.4968C42.3056 21.884 42.4552 22.2896 42.5448 22.7136C42.6344 23.1376 42.6792 23.5672 42.6792 24.0024C42.6792 24.4376 42.6344 24.868 42.5448 25.2936C42.4552 25.7192 42.3064 26.124 42.0984 26.508C40.2104 30.0808 37.6904 32.8488 34.5384 34.812C31.3832 36.772 27.8704 37.752 24 37.752ZM24 35.352C27.6432 35.352 30.9096 34.3608 33.7992 32.3784C36.6888 30.396 38.9584 27.6032 40.608 24C38.9568 20.3936 36.6864 17.6 33.7968 15.6192C30.9072 13.6384 27.6416 12.6472 24 12.6456C20.3584 12.644 17.092 13.6352 14.2008 15.6192C11.3096 17.6032 9.04 20.3968 7.392 24C9.0448 27.6064 11.3152 30.4 14.2032 32.3808C17.0912 34.3616 20.3568 35.3528 24 35.3544M24 30.876C25.92 30.876 27.5464 30.2104 28.8792 28.8792C30.212 27.548 30.8784 25.9216 30.8784 24C30.8784 22.0784 30.212 20.452 28.8792 19.1208C27.5464 17.7896 25.92 17.124 24 17.124C22.08 17.124 20.4536 17.7896 19.1208 19.1208C17.788 20.452 17.1224 22.0784 17.124 24C17.1256 25.9216 17.7912 27.548 19.1208 28.8792C20.4504 30.2104 22.0768 30.8768 24 30.8784M23.9976 28.4784C22.7528 28.4784 21.696 28.0424 20.8272 27.1704C19.9568 26.3 19.5216 25.2424 19.5216 23.9976C19.5216 22.7528 19.9576 21.696 20.8296 20.8272C21.7016 19.9584 22.7592 19.524 24.0024 19.524C25.2456 19.524 26.3024 19.9592 27.1728 20.8296C28.0432 21.7 28.4784 22.7576 28.4784 24.0024C28.4784 25.2472 28.0424 26.304 27.1704 27.1728C26.2984 28.0432 25.2408 28.4784 23.9976 28.4784ZM48 3.8784V8.952C48 9.2912 47.8848 9.576 47.6544 9.8064C47.424 10.0368 47.1384 10.152 46.7976 10.152C46.4568 10.152 46.172 10.0368 45.9432 9.8064C45.7144 9.576 45.6 9.292 45.6 8.9544V3.8784C45.6 3.4464 45.4616 3.092 45.1848 2.8152C44.908 2.5384 44.5544 2.4 44.124 2.4H39.0456C38.7064 2.4 38.4216 2.2848 38.1912 2.0544C37.9608 1.824 37.8456 1.5384 37.8456 1.1976C37.8456 0.8568 37.9608 0.572 38.1912 0.3432C38.4216 0.1144 38.7064 0 39.0456 0H44.124C45.228 0 46.1496 0.3704 46.8888 1.1112C47.628 1.852 47.9984 2.7744 48 3.8784ZM3.8784 0H8.952C9.2912 0 9.576 0.1152 9.8064 0.3456C10.0368 0.576 10.152 0.8616 10.152 1.2024C10.152 1.5432 10.0368 1.828 9.8064 2.0568C9.576 2.2856 9.292 2.4 8.9544 2.4H3.8784C3.4464 2.4 3.092 2.5384 2.8152 2.8152C2.5384 3.092 2.4 3.4464 2.4 3.8784V8.952C2.4 9.2912 2.2848 9.576 2.0544 9.8064C1.824 10.0368 1.5384 10.152 1.1976 10.152C0.8568 10.152 0.572 10.0368 0.3432 9.8064C0.1144 9.576 0 9.292 0 8.9544V3.8784C0 2.7728 0.3704 1.8504 1.1112 1.1112C1.852 0.372 2.7744 0.0016 3.8784 0Z" fill="#A21CAF"/>
<path d="M24 35.352C27.6432 35.352 30.9096 34.3608 33.7992 32.3784C36.6888 30.396 38.9584 27.6032 40.608 24C38.9568 20.3936 36.6864 17.6 33.7968 15.6192C30.9072 13.6384 27.6416 12.6472 24 12.6456C20.3584 12.644 17.092 13.6352 14.2008 15.6192C11.3096 17.6032 9.04 20.3968 7.392 24C9.0448 27.6064 11.3152 30.4 14.2032 32.3808C17.0912 34.3616 20.3568 35.3528 24 35.3544M24 30.876C25.92 30.876 27.5464 30.2104 28.8792 28.8792C30.212 27.548 30.8784 25.9216 30.8784 24C30.8784 22.0784 30.212 20.452 28.8792 19.1208C27.5464 17.7896 25.92 17.124 24 17.124C22.08 17.124 20.4536 17.7896 19.1208 19.1208C17.788 20.452 17.1224 22.0784 17.124 24C17.1256 25.9216 17.7912 27.548 19.1208 28.8792C20.4504 30.2104 22.0768 30.8768 24 30.8784M3.8784 48C2.7728 48 1.8504 47.6304 1.1112 46.8912C0.372 46.152 0.0016 45.2296 0 44.124V39.0456C0 38.7064 0.1152 38.4216 0.3456 38.1912C0.576 37.9608 0.8616 37.8456 1.2024 37.8456C1.5432 37.8456 1.828 37.9608 2.0568 38.1912C2.2856 38.4216 2.4 38.7064 2.4 39.0456V44.124C2.4 44.5544 2.5384 44.908 2.8152 45.1848C3.092 45.4616 3.4464 45.6 3.8784 45.6H8.952C9.2912 45.6 9.576 45.7152 9.8064 45.9456C10.0368 46.176 10.152 46.4616 10.152 46.8024C10.152 47.1432 10.0368 47.428 9.8064 47.6568C9.576 47.8856 9.2912 48 8.952 48H3.8784ZM44.124 48H39.0456C38.7064 48 38.4216 47.8848 38.1912 47.6544C37.9608 47.424 37.8456 47.1384 37.8456 46.7976C37.8456 46.4568 37.9608 46.172 38.1912 45.9432C38.4216 45.7144 38.7064 45.6 39.0456 45.6H44.124C44.5544 45.6 44.908 45.4616 45.1848 45.1848C45.4616 44.908 45.6 44.5544 45.6 44.124V39.0456C45.6 38.7064 45.7152 38.4216 45.9456 38.1912C46.176 37.9608 46.4616 37.8456 46.8024 37.8456C47.1432 37.8456 47.428 37.9608 47.6568 38.1912C47.8856 38.4216 48 38.7064 48 39.0456V44.124C48 45.228 47.6304 46.1504 46.8912 46.8912C46.152 47.632 45.2296 48.0016 44.124 48ZM24 37.752C20.128 37.752 16.616 36.7712 13.464 34.8096C10.3088 32.8464 7.7888 30.0784 5.904 26.5056C5.7088 26.1184 5.5632 25.7224 5.4672 25.3176C5.3712 24.9144 5.3232 24.5032 5.3232 24.084C5.3232 23.6312 5.3672 23.1832 5.4552 22.74C5.5432 22.2968 5.6928 21.8808 5.904 21.492C7.7888 17.9208 10.3088 15.1536 13.464 13.1904C16.616 11.2288 20.128 10.248 24 10.248C27.872 10.248 31.384 11.2296 34.536 13.1928C37.688 15.156 40.208 17.924 42.096 21.4968C42.3056 21.884 42.4552 22.2896 42.5448 22.7136C42.6344 23.1376 42.6792 23.5672 42.6792 24.0024C42.6792 24.4376 42.6344 24.868 42.5448 25.2936C42.4552 25.7192 42.3064 26.124 42.0984 26.508C40.2104 30.0808 37.6904 32.8488 34.5384 34.812C31.3832 36.772 27.8704 37.752 24 37.752ZM23.9976 28.4784C22.7528 28.4784 21.696 28.0424 20.8272 27.1704C19.9568 26.3 19.5216 25.2424 19.5216 23.9976C19.5216 22.7528 19.9576 21.696 20.8296 20.8272C21.7016 19.9584 22.7592 19.524 24.0024 19.524C25.2456 19.524 26.3024 19.9592 27.1728 20.8296C28.0432 21.7 28.4784 22.7576 28.4784 24.0024C28.4784 25.2472 28.0424 26.304 27.1704 27.1728C26.2984 28.0432 25.2408 28.4784 23.9976 28.4784ZM48 3.8784V8.952C48 9.2912 47.8848 9.576 47.6544 9.8064C47.424 10.0368 47.1384 10.152 46.7976 10.152C46.4568 10.152 46.172 10.0368 45.9432 9.8064C45.7144 9.576 45.6 9.292 45.6 8.9544V3.8784C45.6 3.4464 45.4616 3.092 45.1848 2.8152C44.908 2.5384 44.5544 2.4 44.124 2.4H39.0456C38.7064 2.4 38.4216 2.2848 38.1912 2.0544C37.9608 1.824 37.8456 1.5384 37.8456 1.1976C37.8456 0.8568 37.9608 0.572 38.1912 0.3432C38.4216 0.1144 38.7064 0 39.0456 0H44.124C45.228 0 46.1496 0.3704 46.8888 1.1112C47.628 1.852 47.9984 2.7744 48 3.8784ZM3.8784 0H8.952C9.2912 0 9.576 0.1152 9.8064 0.3456C10.0368 0.576 10.152 0.8616 10.152 1.2024C10.152 1.5432 10.0368 1.828 9.8064 2.0568C9.576 2.2856 9.292 2.4 8.9544 2.4H3.8784C3.4464 2.4 3.092 2.5384 2.8152 2.8152C2.5384 3.092 2.4 3.4464 2.4 3.8784V8.952C2.4 9.2912 2.2848 9.576 2.0544 9.8064C1.824 10.0368 1.5384 10.152 1.1976 10.152C0.8568 10.152 0.572 10.0368 0.3432 9.8064C0.1144 9.576 0 9.292 0 8.9544V3.8784C0 2.7728 0.3704 1.8504 1.1112 1.1112C1.852 0.372 2.7744 0.0016 3.8784 0Z" stroke="#A21CAF"/>
</svg>
